<?xml version="1.0" encoding="UTF-8"?>
<svg version="1.1" xmlns="http://www.w3.org/2000/svg" width="1024" height="1024">
<path d="M0 0 C337.92 0 675.84 0 1024 0 C1024 337.92 1024 675.84 1024 1024 C686.08 1024 348.16 1024 0 1024 C0 686.08 0 348.16 0 0 Z " fill="#FDF8EE" transform="translate(0,0)"/>
<path d="M0 0 C5.8686592 3.27290609 10.22034182 8.02962503 14.875 12.8125 C16.41152028 14.38400008 17.9505611 15.95303991 19.4921875 17.51953125 C20.16620605 18.21151611 20.84022461 18.90350098 21.53466797 19.61645508 C23.47139053 21.48892709 25.42618757 23.23073103 27.47294617 24.97592163 C32.84904691 29.66923403 37.85965476 34.71945248 42.89819336 39.76879883 C43.97142281 40.84067059 45.04486429 41.91233009 46.11849976 42.98379517 C49.01082664 45.87159472 51.90001976 48.76251004 54.78849101 51.65416551 C57.81741651 54.68563508 60.84879498 57.71465022 63.879776 60.74406433 C68.9611186 65.82359286 74.04036033 70.90521496 79.1184082 75.98803711 C84.99243761 81.86752527 90.8700845 87.74337865 96.74958891 93.61739141 C101.80379314 98.66706369 106.85605371 103.71867441 111.90668207 108.77192324 C114.92089887 111.7877001 117.93578986 114.80279459 120.95243645 117.81614113 C123.78237841 120.64320261 126.60987854 123.47268345 129.43548203 126.30408096 C130.47429465 127.34421948 131.51396592 128.38350122 132.55454063 129.42187691 C133.97050461 130.83512318 135.38310856 132.25173359 136.79551697 133.66853333 C137.98425368 134.85783557 137.98425368 134.85783557 139.19700527 136.07116413 C142.14511559 139.22503965 142.33985816 141.65902225 142.28515625 145.96484375 C141.83321304 149.19035622 140.31988026 150.80900197 138 153 C134.70817926 155.30427452 131.94707969 155.68314841 128 155 C121.28191977 150.17326902 115.59662232 143.68288812 109.8125 137.8125 C108.07142108 136.04579814 106.32800817 134.28139273 104.58203125 132.51953125 C103.44084839 131.36094604 103.44084839 131.36094604 102.27661133 130.17895508 C100.03009529 127.96273889 100.03009529 127.96273889 97.52612305 126.0300293 C94.81944027 123.85489957 92.43678919 121.46363202 90 119 C88.62338467 117.62200752 87.24600001 116.24478341 85.86808777 114.86808777 C56.24539185 85.24539185 26.62269592 55.62269592 -3 26 C-3.91552643 26.81145477 -4.83105286 27.62290955 -5.77432251 28.45895386 C-9.81740402 31.92429331 -14.06909968 35.06849396 -18.34837151 38.23418236 C-36.0675116 51.35968497 -52.92727029 65.44464631 -69.375 80.125 C-70.07122373 80.74423623 -70.76744745 81.36347246 -71.48476887 82.00147343 C-107.60758522 114.23230376 -132.67370307 145.04494676 -135.85714674 194.77972841 C-136.84004421 212.34225069 -136.64722602 229.80894909 -135.875 247.375 C-135.83120177 248.40045583 -135.78740355 249.42591166 -135.7422781 250.4824419 C-134.58061765 277.10308652 -132.34471199 303.56646823 -129 330 C-128.44789427 329.9981014 -127.89578854 329.9962028 -127.32695234 329.99424666 C-94.60954743 329.88237255 -61.89219045 329.79657552 -29.17463716 329.74467335 C-25.24679555 329.73841977 -21.31895432 329.73194816 -17.39111328 329.7253418 C-16.60914607 329.72403024 -15.82717887 329.72271869 -15.02151568 329.7213674 C-2.35758351 329.69960684 10.30623524 329.66018177 22.97010012 329.61423602 C35.9630046 329.5674894 48.95584965 329.53970842 61.94883478 329.52955753 C69.96719849 329.52269461 77.98524166 329.50101387 86.00350671 329.46041767 C92.15045752 329.43087993 98.29716363 329.42772133 104.44417572 329.43446159 C106.96694031 329.4330837 109.48971681 329.42310697 112.01240921 329.40397263 C115.45270231 329.37915382 118.89161573 329.38505555 122.3319397 329.39872742 C123.3338911 329.38416321 124.33584251 329.369599 125.36815608 329.35459346 C129.87501374 329.40311937 133.01285629 329.5186439 136.60425377 332.41257954 C139.39976719 335.43175099 139.92120759 336.18055896 140.3125 340.25 C139.94713599 344.63436813 138.73973233 346.61562477 136 350 C133.59844997 351.20077502 132.10861416 351.12851662 129.42624187 351.13422108 C127.97231802 351.14090784 127.97231802 351.14090784 126.48902196 351.14772969 C124.88035094 351.14745315 124.88035094 351.14745315 123.23918152 351.14717102 C122.10577294 351.15084771 120.97236436 351.1545244 119.80461007 351.1583125 C115.98065678 351.16938602 112.15673063 351.17319936 108.33276367 351.17700195 C105.60169744 351.18272949 102.87063532 351.18989716 100.13957214 351.19691467 C91.92526158 351.21668968 83.71094976 351.22674636 75.49662134 351.23564246 C71.63052681 351.24002345 67.76443366 351.24539073 63.89834023 351.25063133 C51.05046339 351.26764424 38.20258741 351.2821393 25.35470104 351.28938007 C22.0195891 351.29129004 18.68447716 351.29321036 15.34936523 351.29516602 C14.10594271 351.29589163 14.10594271 351.29589163 12.83740053 351.2966319 C-0.59657907 351.30493548 -14.03046972 351.33027764 -27.46441046 351.36274669 C-41.249521 351.39579353 -55.03458629 351.41382666 -68.81973666 351.41702431 C-76.56255176 351.41919156 -84.30523713 351.42797154 -92.04801369 351.45348549 C-98.6409595 351.47516006 -105.23374407 351.48325897 -111.82672147 351.47351871 C-115.19152365 351.46896446 -118.55572237 351.47309247 -121.9205246 351.49028015 C-125.56671075 351.50786702 -129.21204517 351.50095723 -132.85823059 351.48774719 C-134.45686336 351.50420106 -134.45686336 351.50420106 -136.08779174 351.52098733 C-140.478811 351.48242563 -143.22136389 351.45137953 -147.07136059 349.2195158 C-150.88368567 344.83221784 -151.25252952 341.93170061 -151.2784729 336.10308838 C-151.2842653 335.40955033 -151.2900577 334.71601228 -151.29602563 334.00145793 C-151.31302631 331.67833364 -151.31590215 329.35540802 -151.31884766 327.03222656 C-151.3281458 325.36662814 -151.3383143 323.70103438 -151.34928894 322.03544617 C-151.3766159 317.51310989 -151.39174634 312.99080481 -151.40471697 308.46840763 C-151.4203357 303.74247212 -151.44712993 299.01660043 -151.4727478 294.29071045 C-151.51955787 285.3412527 -151.5562912 276.39178298 -151.58942068 267.44226527 C-151.62762632 257.25369334 -151.67704056 247.06518546 -151.72740483 236.8766675 C-151.83075782 215.91782562 -151.92000728 194.9589432 -152 174 C-152.47630859 174.48791016 -152.95261719 174.97582031 -153.44335938 175.47851562 C-154.07048828 176.11466797 -154.69761719 176.75082031 -155.34375 177.40625 C-155.96443359 178.03853516 -156.58511719 178.67082031 -157.22460938 179.32226562 C-160.58952338 182.50209085 -162.92583501 183.01918152 -167.5 182.9375 C-171.84291002 181.77422053 -173.44923694 180.71020082 -176 177 C-176.86795033 173.76827006 -176.74807457 171.24900409 -176 168 C-170.75699751 159.98499585 -162.33759426 153.19683197 -155.57250977 146.44311523 C-154.21481 145.08405857 -152.85732266 143.72478968 -151.50003052 142.36532593 C-147.83086824 138.69162367 -144.15857251 135.02106899 -140.48555112 131.35122561 C-136.63208959 127.50030547 -132.78107946 123.64693508 -128.92967224 119.79396057 C-122.46296872 113.32544054 -115.99416605 106.85902539 -109.52416992 100.39379883 C-102.05657824 92.93164876 -94.5925957 85.4659032 -87.13047749 77.99827999 C-80.71002925 71.57328585 -74.28762439 65.15025245 -67.86359638 58.72883755 C-64.03273535 54.89953116 -60.20254273 51.06956276 -56.3741169 47.23782158 C-52.77387664 43.63468114 -49.1711768 40.0340178 -45.56660843 36.43520737 C-44.24841004 35.11832508 -42.93105044 33.80060251 -41.6146183 32.48195457 C-29.54866367 20.397573 -29.54866367 20.397573 -23.59229946 15.3754282 C-20.26468429 12.50103437 -17.26845256 9.27019479 -14.2265625 6.09960938 C-9.68969935 1.46179508 -6.61588334 -0.793906 0 0 Z " fill="#132935" transform="translate(356,322)"/>
<path d="M0 0 C1.20970459 0.00523682 2.41940918 0.01047363 3.66577148 0.01586914 C4.97094727 0.0190918 6.27612305 0.02231445 7.62084961 0.02563477 C9.00952213 0.03399138 10.39819401 0.04245634 11.78686523 0.05102539 C13.17944179 0.05603873 14.57202005 0.06060193 15.96459961 0.06469727 C19.38456394 0.07653105 22.80444367 0.09301659 26.22436523 0.11352539 C30.45882944 8.33252273 34.30889156 16.6702354 37.97537231 25.15423584 C39.49004143 28.65808825 41.01655527 32.15678712 42.54077148 35.65649414 C42.8484697 36.36384705 43.15616791 37.07119995 43.47319031 37.79998779 C46.55154112 44.87450704 49.66083815 51.93493849 52.78686523 58.98852539 C53.26269043 60.06755127 53.73851562 61.14657715 54.22875977 62.25830078 C57.0582326 68.63441479 60.04285466 74.90540602 63.22436523 81.11352539 C69.48989407 68.07792972 75.45438948 54.9377036 81.22436523 41.67602539 C85.85144809 31.06325658 90.4926202 20.45748762 95.22436523 9.89086914 C95.61043945 9.02482559 95.99651367 8.15878204 96.39428711 7.26649475 C96.75071289 6.4734343 97.10713867 5.68037384 97.47436523 4.86328125 C97.94616211 3.81061317 97.94616211 3.81061317 98.42749023 2.73667908 C99.22436523 1.11352539 99.22436523 1.11352539 100.22436523 0.11352539 C102.35789697 0.0134925 104.49474065 -0.01728508 106.63061523 -0.01928711 C107.9312793 -0.02057617 109.23194336 -0.02186523 110.57202148 -0.02319336 C111.59320068 -0.02005127 111.59320068 -0.02005127 112.63500977 -0.0168457 C114.71565038 -0.01149701 116.79607512 -0.01679141 118.87670898 -0.02319336 C120.82770508 -0.02125977 120.82770508 -0.02125977 122.81811523 -0.01928711 C124.02145508 -0.01815918 125.22479492 -0.01703125 126.46459961 -0.01586914 C129.22436523 0.11352539 129.22436523 0.11352539 130.22436523 1.11352539 C130.32262492 2.7561124 130.35068486 4.40293872 130.35134888 6.04846191 C130.3541687 7.11698898 130.35698853 8.18551605 130.3598938 9.28642273 C130.35685745 11.05998894 130.35685745 11.05998894 130.35375977 12.86938477 C130.35638824 14.72524956 130.35638824 14.72524956 130.35906982 16.61860657 C130.3627281 20.0214198 130.36185486 23.42417259 130.35869074 26.8269825 C130.35616682 30.38062753 130.35850476 33.93426991 130.3600769 37.48791504 C130.36189851 43.45671047 130.35949253 49.42549355 130.35473633 55.39428711 C130.34929372 62.30447107 130.35105639 69.21462554 130.35656273 76.12480879 C130.36109413 82.04751574 130.36174428 87.9702138 130.35912406 93.89292192 C130.35756143 97.434779 130.35736714 100.9766222 130.36066055 104.51847839 C130.36407352 108.46488602 130.3593491 112.41126035 130.35375977 116.35766602 C130.355784 117.54004349 130.35780823 118.72242096 130.3598938 119.94062805 C130.35707397 121.00915512 130.35425415 122.07768219 130.35134888 123.17858887 C130.35078334 124.58007046 130.35078334 124.58007046 130.35020638 126.00986481 C130.22436523 128.11352539 130.22436523 128.11352539 129.22436523 129.11352539 C127.52877798 129.21284693 125.82910776 129.24432546 124.13061523 129.24633789 C123.1006543 129.24762695 122.07069336 129.24891602 121.00952148 129.25024414 C119.38336914 129.24444336 119.38336914 129.24444336 117.72436523 129.23852539 C116.64026367 129.24239258 115.55616211 129.24625977 114.43920898 129.25024414 C113.40924805 129.24895508 112.37928711 129.24766602 111.31811523 129.24633789 C110.36614258 129.24520996 109.41416992 129.24408203 108.43334961 129.24291992 C106.22436523 129.11352539 106.22436523 129.11352539 105.22436523 128.11352539 C105.09938909 125.61953474 105.03833643 123.1518421 105.01904297 120.65625 C105.00914337 119.87581833 104.99924377 119.09538666 104.98904419 118.29130554 C104.95733748 115.69952476 104.93263573 113.10772562 104.90795898 110.51586914 C104.88739736 108.72367361 104.86640111 106.93148302 104.84498596 105.13929749 C104.78968347 100.41287219 104.7403104 95.68640254 104.69213867 90.9598999 C104.64198319 86.14062534 104.58626612 81.32141552 104.53100586 76.50219727 C104.42332434 67.03936188 104.32190172 57.5764704 104.22436523 48.11352539 C100.43540534 55.60783683 96.66781942 63.08781312 93.32202148 70.79321289 C92.65210438 72.31535041 91.98218235 73.83748576 91.31225586 75.35961914 C90.30015909 77.67082154 89.28944416 79.98262267 88.27929688 82.29467773 C83.5630241 93.07309487 78.56295131 103.62723006 73.22436523 114.11352539 C66.62436523 114.11352539 60.02436523 114.11352539 53.22436523 114.11352539 C47.88085272 103.51706838 42.68322872 92.86856958 37.63232422 82.12988281 C36.52898268 79.78426771 35.42279106 77.44001295 34.31616211 75.09594727 C32.58267398 71.4213355 30.85716142 67.74307359 29.13702393 64.06219482 C28.2936801 62.2615235 27.44364578 60.46398974 26.59301758 58.66674805 C26.13491699 57.68625488 25.67681641 56.70576172 25.20483398 55.69555664 C24.81577881 54.86902588 24.42672363 54.04249512 24.02587891 53.19091797 C23.22436523 51.11352539 23.22436523 51.11352539 23.22436523 48.11352539 C22.56436523 48.11352539 21.90436523 48.11352539 21.22436523 48.11352539 C21.22658585 49.11355087 21.22880646 50.11357635 21.23109436 51.14390564 C21.25132592 60.54720879 21.26633744 69.95050754 21.27617741 79.35382748 C21.2814062 84.18869366 21.28850378 89.02354233 21.29980469 93.85839844 C21.3106337 98.52029659 21.3166421 103.18217785 21.31924248 107.8440876 C21.3210967 109.62676828 21.32471726 111.40944798 21.33009529 113.19212151 C21.33730592 115.680185 21.33835617 118.16817782 21.33789062 120.65625 C21.3414859 121.40071381 21.34508118 122.14517761 21.3487854 122.91220093 C21.3384174 127.99947323 21.3384174 127.99947323 20.22436523 129.11352539 C18.52877798 129.21284693 16.82910776 129.24432546 15.13061523 129.24633789 C14.1006543 129.24762695 13.07069336 129.24891602 12.00952148 129.25024414 C10.38336914 129.24444336 10.38336914 129.24444336 8.72436523 129.23852539 C7.64026367 129.24239258 6.55616211 129.24625977 5.43920898 129.25024414 C4.40924805 129.24895508 3.37928711 129.24766602 2.31811523 129.24633789 C1.36614258 129.24520996 0.41416992 129.24408203 -0.56665039 129.24291992 C-2.77563477 129.11352539 -2.77563477 129.11352539 -3.77563477 128.11352539 C-3.87389445 126.47093838 -3.90195439 124.82411207 -3.90261841 123.17858887 C-3.90543823 122.1100618 -3.90825806 121.04153473 -3.91116333 119.94062805 C-3.9091391 118.75825058 -3.90711487 117.57587311 -3.9050293 116.35766602 C-3.90678162 115.12042282 -3.90853394 113.88317963 -3.91033936 112.60844421 C-3.91399763 109.20563098 -3.91312439 105.80287819 -3.90996027 102.40006828 C-3.90743635 98.84642325 -3.90977429 95.29278087 -3.91134644 91.73913574 C-3.91316804 85.77034031 -3.91076206 79.80155723 -3.90600586 73.83276367 C-3.90056325 66.92257971 -3.90232592 60.01242524 -3.90783226 53.10224199 C-3.91236366 47.17953504 -3.91301382 41.25683699 -3.9103936 35.33412886 C-3.90883097 31.79227178 -3.90863667 28.25042859 -3.91193008 24.70857239 C-3.91534305 20.76216476 -3.91061863 16.81579043 -3.9050293 12.86938477 C-3.90705353 11.68700729 -3.90907776 10.50462982 -3.91116333 9.28642273 C-3.90834351 8.21789566 -3.90552368 7.14936859 -3.90261841 6.04846191 C-3.90224138 5.11414085 -3.90186436 4.17981979 -3.90147591 3.21718597 C-3.70767128 -0.02260625 -3.28563265 0.13438466 0 0 Z " fill="#132A37" transform="translate(702.775634765625,499.886474609375)"/>
<path d="M0 0 C1.16566498 -0.00960754 2.33132996 -0.01921509 3.53231812 -0.02911377 C4.80507599 -0.03336365 6.07783386 -0.03761353 7.38916016 -0.04199219 C8.69341949 -0.04769226 9.99767883 -0.05339233 11.34146118 -0.05926514 C14.11403798 -0.0697939 16.88658569 -0.07562195 19.65917969 -0.07910156 C23.18379367 -0.08454203 26.7080126 -0.10846467 30.23250389 -0.13707352 C33.61804689 -0.1603991 37.00354112 -0.16216519 40.38916016 -0.16699219 C41.64167572 -0.17933899 42.89419128 -0.19168579 44.18466187 -0.20440674 C58.41264095 -0.16874014 70.04053625 3.24727529 80.51025391 13.03222656 C89.29405257 22.18551581 91.05735334 33.24238736 90.97485352 45.5234375 C90.61905405 56.66947222 86.56535878 65.39273194 78.52978516 73.10253906 C75.32041211 75.95995484 71.99491143 78.59081991 68.55322266 81.16113281 C70.78245273 84.99065657 73.01470895 88.81839586 75.25006104 92.64434814 C76.0331677 93.98487519 76.81584453 95.32565345 77.5980835 96.66668701 C82.53278604 105.12143101 87.49277156 113.54419035 92.94726562 121.67871094 C94.06103516 123.38769531 94.06103516 123.38769531 95.55322266 126.16113281 C95.05822266 127.64613281 95.05822266 127.64613281 94.55322266 129.16113281 C85.31322266 129.16113281 76.07322266 129.16113281 66.55322266 129.16113281 C60.80322266 118.97363281 60.80322266 118.97363281 58.89526367 115.59130859 C55.95791964 110.39089326 53.0059239 105.19990208 50.01806641 100.02832031 C49.46666992 99.07207764 48.91527344 98.11583496 48.34716797 97.13061523 C47.28891312 95.29796872 46.22714728 93.46734445 45.16162109 91.63891602 C44.4486084 90.40274536 44.4486084 90.40274536 43.72119141 89.14160156 C43.30119873 88.4186792 42.88120605 87.69575684 42.44848633 86.95092773 C41.55322266 85.16113281 41.55322266 85.16113281 41.55322266 83.16113281 C34.29322266 83.16113281 27.03322266 83.16113281 19.55322266 83.16113281 C19.55322266 98.34113281 19.55322266 113.52113281 19.55322266 129.16113281 C15.44884766 129.18175781 11.34447266 129.20238281 7.11572266 129.22363281 C5.17161499 129.23728882 5.17161499 129.23728882 3.18823242 129.2512207 C1.66927368 129.25496704 1.66927368 129.25496704 0.11962891 129.25878906 C-1.44356079 129.26664429 -1.44356079 129.26664429 -3.03833008 129.2746582 C-5.44677734 129.16113281 -5.44677734 129.16113281 -6.44677734 128.16113281 C-6.54503703 126.51854581 -6.57309697 124.87171949 -6.57376099 123.22619629 C-6.57658081 122.15766922 -6.57940063 121.08914215 -6.58230591 119.98823547 C-6.58028168 118.805858 -6.57825745 117.62348053 -6.57617188 116.40527344 C-6.57792419 115.16803024 -6.57967651 113.93078705 -6.58148193 112.65605164 C-6.58514021 109.2532384 -6.58426697 105.85048561 -6.58110285 102.4476757 C-6.57857893 98.89403067 -6.58091687 95.3403883 -6.58248901 91.78674316 C-6.58431062 85.81794773 -6.58190464 79.84916465 -6.57714844 73.88037109 C-6.57170583 66.97018713 -6.5734685 60.06003266 -6.57897484 53.14984941 C-6.58350624 47.22714246 -6.58415639 41.30444441 -6.58153617 35.38173628 C-6.57997354 31.8398792 -6.57977925 28.29803601 -6.58307266 24.75617981 C-6.58648563 20.80977218 -6.58176121 16.86339785 -6.57617188 12.91699219 C-6.57819611 11.73461472 -6.58022034 10.55223724 -6.58230591 9.33403015 C-6.57948608 8.26550308 -6.57666626 7.19697601 -6.57376099 6.09606934 C-6.57338396 5.16174828 -6.57300694 4.22742722 -6.57261848 3.2647934 C-6.32051945 -0.94949453 -3.61906818 0.02397975 0 0 Z " fill="#132A36" transform="translate(584.44677734375,499.8388671875)"/>
<path d="M0 0 C8.71407383 6.49951973 15.91047216 15.45943826 18.41015625 26.25 C18.41015625 29.22 18.41015625 32.19 18.41015625 35.25 C10.16015625 35.25 1.91015625 35.25 -6.58984375 35.25 C-7.39421875 33.6 -8.19859375 31.95 -9.02734375 30.25 C-12.66355579 23.58790938 -17.29524866 18.04237233 -24.42578125 15.06640625 C-34.13153257 12.56208276 -43.32298245 13.42147603 -52 18.4296875 C-61.46713955 25.08381575 -66.20221163 35.56852699 -68.30859375 46.7890625 C-69.9488222 61.14106147 -68.07158775 75.26451074 -59.58984375 87.25 C-54.03028131 93.53472276 -48.39090675 96.87582275 -40.03125 97.52734375 C-29.33004157 97.79248767 -22.5083702 96.69947345 -14.54956055 89.44067383 C-12.4408374 87.08343291 -11.44742523 84.91234411 -10.15234375 82.04296875 C-8.25520196 78.79698 -7.42429665 77.4893118 -3.76611328 76.44018555 C-0.3661425 76.26471479 2.89015665 76.37593118 6.28515625 76.625 C7.45046875 76.67011719 8.61578125 76.71523438 9.81640625 76.76171875 C12.68627105 76.87933616 15.54555449 77.04334172 18.41015625 77.25 C18.70885426 89.03612569 14.11004642 97.36653431 6.41015625 106.25 C-5.66607852 118.02583092 -21.0645988 122.7851933 -37.65869141 122.67163086 C-53.62295202 122.1638447 -67.62652741 116.79397888 -79.3046875 105.7265625 C-92.85523078 91.04101645 -97.4701003 71.16150266 -96.87109375 51.671875 C-96.05598851 36.03543944 -91.2476634 20.94871074 -80.58984375 9.25 C-79.97238281 8.55261719 -79.35492188 7.85523438 -78.71875 7.13671875 C-58.93531045 -14.00011505 -23.53236142 -15.9012035 0 0 Z " fill="#132935" transform="translate(541.58984375,508.75)"/>
<path d="M0 0 C0.87885361 -0.0004985 1.75770721 -0.00099701 2.66319275 -0.00151062 C4.52003238 0.00082907 6.37687522 0.01055145 8.23364258 0.02709961 C11.08248092 0.0507202 13.93038533 0.04765644 16.77929688 0.04101562 C18.58203685 0.04659141 20.38477288 0.05370066 22.1875 0.0625 C23.47032616 0.06113289 23.47032616 0.06113289 24.77906799 0.05973816 C30.79631235 0.13224985 30.79631235 0.13224985 33.02734375 2.36328125 C33.22740677 5.35290228 33.30707298 8.24790475 33.29296875 11.23828125 C33.29583893 12.55868408 33.29583893 12.55868408 33.29876709 13.90576172 C33.30012927 15.76855759 33.29643057 17.63136294 33.28808594 19.49414062 C33.27738682 22.35177861 33.28798007 25.20878791 33.30078125 28.06640625 C33.29945966 29.87369931 33.29689728 31.68099198 33.29296875 33.48828125 C33.29701721 34.34663574 33.30106567 35.20499023 33.30523682 36.08935547 C33.2572612 42.1333638 33.2572612 42.1333638 31.02734375 44.36328125 C28.04945959 44.57565017 25.16698328 44.66723774 22.1875 44.6640625 C20.87065468 44.67049019 20.87065468 44.67049019 19.52720642 44.67704773 C17.6686184 44.68279625 15.81000788 44.68328746 13.95141602 44.67895508 C11.10459043 44.67579761 8.25880618 44.69923862 5.41210938 44.72460938 C3.60807423 44.72688253 1.80403629 44.72758579 0 44.7265625 C-0.85319321 44.73577225 -1.70638641 44.74498199 -2.58543396 44.75447083 C-8.51072927 44.70799659 -8.51072927 44.70799659 -10.69718933 43.07633972 C-12.92010606 40.09077712 -12.39806792 36.44480707 -12.37109375 32.86328125 C-12.37396393 32.03119141 -12.37683411 31.19910156 -12.37979126 30.34179688 C-12.38183187 28.58332641 -12.37630218 26.82483324 -12.36376953 25.06640625 C-12.34771527 22.37318212 -12.3636177 19.68145865 -12.3828125 16.98828125 C-12.38083007 15.2799446 -12.37698639 13.57160889 -12.37109375 11.86328125 C-12.37716644 11.05697266 -12.38323914 10.25066406 -12.38949585 9.41992188 C-12.31907883 3.82855568 -12.31907883 3.82855568 -10.69718933 1.65022278 C-7.61114437 -0.65275388 -3.70597751 -0.04000397 0 0 Z " fill="#132935" transform="translate(311.97265625,551.63671875)"/>
<path d="M0 0 C0.85428589 -0.0004985 1.70857178 -0.00099701 2.58874512 -0.00151062 C4.39431078 0.0008291 6.19987975 0.01055168 8.00537109 0.02709961 C10.77080415 0.05069213 13.53527313 0.04765993 16.30078125 0.04101562 C18.05469325 0.04659247 19.80860119 0.05370239 21.5625 0.0625 C22.80477356 0.06113289 22.80477356 0.06113289 24.07214355 0.05973816 C27.97916331 0.10804764 29.95841382 0.14805713 33.28125 2.36328125 C33.5727099 5.39064177 33.67702171 8.21014881 33.64453125 11.23828125 C33.64527901 12.55868408 33.64527901 12.55868408 33.64604187 13.90576172 C33.64369932 15.76857763 33.63396012 17.63139657 33.61743164 19.49414062 C33.59384436 22.35184922 33.59686848 25.20862512 33.60351562 28.06640625 C33.59793891 29.8737035 33.59082907 31.68099681 33.58203125 33.48828125 C33.58339836 34.77581299 33.58339836 34.77581299 33.58479309 36.08935547 C33.51226808 42.13226317 33.51226808 42.13226317 31.28125 44.36328125 C28.30336584 44.57565017 25.42088953 44.66723774 22.44140625 44.6640625 C21.12456093 44.67049019 21.12456093 44.67049019 19.78111267 44.67704773 C17.92252465 44.68279625 16.06391413 44.68328746 14.20532227 44.67895508 C11.35849668 44.67579761 8.51271243 44.69923862 5.66601562 44.72460938 C3.86198048 44.72688253 2.05794254 44.72758579 0.25390625 44.7265625 C-0.59928696 44.73577225 -1.45248016 44.74498199 -2.33152771 44.75447083 C-8.25682302 44.70799659 -8.25682302 44.70799659 -10.44328308 43.07633972 C-12.66619981 40.09077712 -12.14416167 36.44480707 -12.1171875 32.86328125 C-12.12005768 32.03119141 -12.12292786 31.19910156 -12.12588501 30.34179688 C-12.12792562 28.58332641 -12.12239593 26.82483324 -12.10986328 25.06640625 C-12.09380902 22.37318212 -12.10971145 19.68145865 -12.12890625 16.98828125 C-12.12692382 15.2799446 -12.12308014 13.57160889 -12.1171875 11.86328125 C-12.12326019 11.05697266 -12.12933289 10.25066406 -12.1355896 9.41992188 C-12.0651413 3.82607207 -12.0651413 3.82607207 -10.43655396 1.65022278 C-7.40734181 -0.61919737 -3.64034612 -0.04048223 0 0 Z " fill="#132935" transform="translate(311.71875,491.63671875)"/>
<path d="M0 0 C1.25001549 0.00136711 1.25001549 0.00136711 2.52528381 0.00276184 C3.80883507 -0.00366585 3.80883507 -0.00366585 5.11831665 -0.01022339 C6.92982599 -0.01597159 8.74135842 -0.01646335 10.5528717 -0.01213074 C13.32727912 -0.00897331 16.10061793 -0.03241432 18.87489319 -0.05778503 C20.63335538 -0.0600582 22.39182045 -0.06076144 24.15028381 -0.05973816 C24.98160324 -0.06894791 25.81292267 -0.07815765 26.66943359 -0.08764648 C32.44106656 -0.04120672 32.44106656 -0.04120672 34.62397766 1.58375549 C36.88791058 4.62503501 36.30788473 8.40952519 36.26747131 12.05744934 C36.26821907 13.34243568 36.26821907 13.34243568 36.26898193 14.65338135 C36.26664245 16.46314312 36.25692128 18.27290821 36.2403717 20.08259583 C36.21674987 22.85901324 36.21981513 25.63447242 36.22645569 28.41096497 C36.22087992 30.16813217 36.21377068 31.92529532 36.20497131 33.68244934 C36.20633842 34.93246483 36.20633842 34.93246483 36.20773315 36.20773315 C36.13522352 42.07250963 36.13522352 42.07250963 33.90419006 44.30354309 C30.91456903 44.50360611 28.01956657 44.58327232 25.02919006 44.56916809 C23.70878723 44.57203827 23.70878723 44.57203827 22.36170959 44.57496643 C20.49891372 44.57632861 18.63610837 44.57262991 16.77333069 44.56428528 C13.9156927 44.55358616 11.05868341 44.56417941 8.20106506 44.57698059 C6.393772 44.575659 4.58647934 44.57309662 2.77919006 44.56916809 C1.92083557 44.57321655 1.06248108 44.57726501 0.17811584 44.58143616 C-5.86589249 44.53346054 -5.86589249 44.53346054 -8.09580994 42.30354309 C-8.29587296 39.31392206 -8.37553916 36.41891959 -8.36143494 33.42854309 C-8.36334839 32.54827454 -8.36526184 31.66800598 -8.36723328 30.76106262 C-8.36859545 28.89826675 -8.36489675 27.0354614 -8.35655212 25.17268372 C-8.345853 22.31504573 -8.35644625 19.45803643 -8.36924744 16.60041809 C-8.36792585 14.79312503 -8.36536347 12.98583236 -8.36143494 11.17854309 C-8.3654834 10.3201886 -8.36953186 9.46183411 -8.373703 8.57746887 C-8.31598187 1.30571265 -7.30485497 0.09031415 0 0 Z " fill="#122834" transform="translate(369.09580993652344,551.6964569091797)"/>
<path d="M0 0 C0.83208984 -0.00287018 1.66417969 -0.00574036 2.52148438 -0.00869751 C4.27995484 -0.01073812 6.03844801 -0.00520843 7.796875 0.00732422 C10.49009913 0.02337848 13.1818226 0.00747605 15.875 -0.01171875 C17.58333665 -0.00973632 19.29167236 -0.00589264 21 0 C22.20946289 -0.00910904 22.20946289 -0.00910904 23.44335938 -0.0184021 C29.03684478 0.05204161 29.03684478 0.05204161 31.21305847 1.67964172 C33.48710874 4.71678671 32.90371172 8.5028805 32.86328125 12.15234375 C32.86402901 13.43733009 32.86402901 13.43733009 32.86479187 14.74827576 C32.86245239 16.55803753 32.85273121 18.36780262 32.83618164 20.17749023 C32.81255981 22.95390765 32.81562506 25.72936683 32.82226562 28.50585938 C32.81668986 30.26302658 32.80958062 32.02018973 32.80078125 33.77734375 C32.80214836 35.02735924 32.80214836 35.02735924 32.80354309 36.30262756 C32.73103346 42.16740404 32.73103346 42.16740404 30.5 44.3984375 C27.51037897 44.59850052 24.6153765 44.67816673 21.625 44.6640625 C20.30459717 44.66693268 20.30459717 44.66693268 18.95751953 44.66986084 C17.09472366 44.67122302 15.23191831 44.66752432 13.36914062 44.65917969 C10.51150264 44.64848057 7.65449334 44.65907382 4.796875 44.671875 C2.98958194 44.67055341 1.18228927 44.66799103 -0.625 44.6640625 C-1.48335449 44.66811096 -2.34170898 44.67215942 -3.22607422 44.67633057 C-9.27008255 44.62835495 -9.27008255 44.62835495 -11.5 42.3984375 C-11.71228452 39.49268704 -11.80396095 36.68469821 -11.80078125 33.77734375 C-11.80506638 32.92164291 -11.8093515 32.06594208 -11.81376648 31.18431091 C-11.81951468 29.37280157 -11.82000644 27.56126914 -11.81567383 25.74975586 C-11.8125164 22.97534845 -11.83595741 20.20200964 -11.86132812 17.42773438 C-11.86360129 15.66927218 -11.86430453 13.91080711 -11.86328125 12.15234375 C-11.872491 11.32102432 -11.88170074 10.4897049 -11.89118958 9.63319397 C-11.84472795 3.85884455 -11.84472795 3.85884455 -10.21305847 1.67964172 C-7.23002338 -0.55138379 -3.58340952 -0.02698836 0 0 Z " fill="#122834" transform="translate(372.5,491.6015625)"/>
<path d="M0 0 C3.8775 -0.061875 7.755 -0.12375 11.75 -0.1875 C13.5438916 -0.22846802 13.5438916 -0.22846802 15.37402344 -0.27026367 C33.04629637 -0.40467007 33.04629637 -0.40467007 39.33300781 5.0090332 C43.96841251 10.14178582 45.18275326 13.28464862 45.3125 20.25 C45.36857422 22.20679688 45.36857422 22.20679688 45.42578125 24.203125 C44.82417939 29.56786821 42.49250156 32.50749844 38.75 36.25 C31.10474254 41.11516384 22.22292345 40.23934923 13.5 40.125 C9.045 40.08375 4.59 40.0425 0 40 C0 26.8 0 13.6 0 0 Z " fill="#FCF8EE" transform="translate(604,522)"/>
<path d="M0 0 C0.99 0.495 0.99 0.495 2 1 C-96 99 -96 99 -98.23252869 100.81255341 C-100.76524503 103.94707768 -100.49233778 106.20476539 -100.48101807 110.20062256 C-100.48444214 110.92508072 -100.48786621 111.64953888 -100.49139404 112.39595032 C-100.49801633 114.83174972 -100.47592189 117.26644955 -100.45410156 119.70214844 C-100.4528763 121.47481374 -100.45341007 123.247481 -100.45556259 125.02014542 C-100.4564663 129.77086941 -100.43326954 134.52119108 -100.40512085 139.27182007 C-100.38235479 143.72826416 -100.38126915 148.18461 -100.37841797 152.64111328 C-100.3574218 165.67746222 -100.30157725 178.71373618 -100.25 191.75 C-100.1675 220.8725 -100.085 249.995 -100 280 C-14.53 280 70.94 280 159 280 C159 280.33 159 280.66 159 281 C72.87 281.33 -13.26 281.66 -102 282 C-110.15113995 175.07622297 -110.15113995 175.07622297 -108.7734375 148.8515625 C-108.70078965 147.38003558 -108.70078965 147.38003558 -108.62667418 145.87878084 C-106.34283363 102.74043288 -90.01507563 74.85049896 -58.31817627 46.18927002 C-55.89295056 44.02639993 -53.45019746 41.8845108 -51 39.75 C-50.39068099 39.21704284 -49.78136198 38.68408567 -49.15357876 38.13497829 C-33.46951327 24.44801451 -17.18307827 11.75951334 0 0 Z " fill="#FDFDFC" transform="translate(329,370)"/>
<path d="M0 0 C1.20970459 0.00523682 2.41940918 0.01047363 3.66577148 0.01586914 C4.97094727 0.0190918 6.27612305 0.02231445 7.62084961 0.02563477 C9.00952213 0.03399138 10.39819401 0.04245634 11.78686523 0.05102539 C13.17944179 0.05603873 14.57202005 0.06060193 15.96459961 0.06469727 C19.38456394 0.07653105 22.80444367 0.09301659 26.22436523 0.11352539 C28.69936523 5.06352539 28.69936523 5.06352539 31.22436523 10.11352539 C30.56436523 10.44352539 29.90436523 10.77352539 29.22436523 11.11352539 C27.90436523 8.14352539 26.58436523 5.17352539 25.22436523 2.11352539 C16.31436523 1.78352539 7.40436523 1.45352539 -1.77563477 1.11352539 C-1.77563477 42.69352539 -1.77563477 84.27352539 -1.77563477 127.11352539 C5.48436523 127.11352539 12.74436523 127.11352539 20.22436523 127.11352539 C20.22436523 101.04352539 20.22436523 74.97352539 20.22436523 48.11352539 C20.55436523 48.11352539 20.88436523 48.11352539 21.22436523 48.11352539 C21.24748883 58.52695464 21.2652804 68.94037783 21.27617741 79.35382748 C21.2814062 84.18869366 21.28850378 89.02354233 21.29980469 93.85839844 C21.3106337 98.52029659 21.3166421 103.18217785 21.31924248 107.8440876 C21.3210967 109.62676828 21.32471726 111.40944798 21.33009529 113.19212151 C21.33730592 115.680185 21.33835617 118.16817782 21.33789062 120.65625 C21.3414859 121.40071381 21.34508118 122.14517761 21.3487854 122.91220093 C21.3384174 127.99947323 21.3384174 127.99947323 20.22436523 129.11352539 C18.52877798 129.21284693 16.82910776 129.24432546 15.13061523 129.24633789 C14.1006543 129.24762695 13.07069336 129.24891602 12.00952148 129.25024414 C10.38336914 129.24444336 10.38336914 129.24444336 8.72436523 129.23852539 C7.64026367 129.24239258 6.55616211 129.24625977 5.43920898 129.25024414 C4.40924805 129.24895508 3.37928711 129.24766602 2.31811523 129.24633789 C1.36614258 129.24520996 0.41416992 129.24408203 -0.56665039 129.24291992 C-2.77563477 129.11352539 -2.77563477 129.11352539 -3.77563477 128.11352539 C-3.87389445 126.47093838 -3.90195439 124.82411207 -3.90261841 123.17858887 C-3.90543823 122.1100618 -3.90825806 121.04153473 -3.91116333 119.94062805 C-3.9091391 118.75825058 -3.90711487 117.57587311 -3.9050293 116.35766602 C-3.90678162 115.12042282 -3.90853394 113.88317963 -3.91033936 112.60844421 C-3.91399763 109.20563098 -3.91312439 105.80287819 -3.90996027 102.40006828 C-3.90743635 98.84642325 -3.90977429 95.29278087 -3.91134644 91.73913574 C-3.91316804 85.77034031 -3.91076206 79.80155723 -3.90600586 73.83276367 C-3.90056325 66.92257971 -3.90232592 60.01242524 -3.90783226 53.10224199 C-3.91236366 47.17953504 -3.91301382 41.25683699 -3.9103936 35.33412886 C-3.90883097 31.79227178 -3.90863667 28.25042859 -3.91193008 24.70857239 C-3.91534305 20.76216476 -3.91061863 16.81579043 -3.9050293 12.86938477 C-3.90705353 11.68700729 -3.90907776 10.50462982 -3.91116333 9.28642273 C-3.90834351 8.21789566 -3.90552368 7.14936859 -3.90261841 6.04846191 C-3.90224138 5.11414085 -3.90186436 4.17981979 -3.90147591 3.21718597 C-3.70767128 -0.02260625 -3.28563265 0.13438466 0 0 Z " fill="#020A13" transform="translate(702.775634765625,499.886474609375)"/>
<path d="M0 0 C1.30066406 -0.00128906 2.60132813 -0.00257813 3.94140625 -0.00390625 C4.96258545 -0.00076416 4.96258545 -0.00076416 6.00439453 0.00244141 C8.08503515 0.0077901 10.16545989 0.0024957 12.24609375 -0.00390625 C14.19708984 -0.00197266 14.19708984 -0.00197266 16.1875 0 C17.39083984 0.00112793 18.59417969 0.00225586 19.83398438 0.00341797 C22.59375 0.1328125 22.59375 0.1328125 23.59375 1.1328125 C23.69200968 2.77539951 23.72006963 4.42222583 23.72073364 6.06774902 C23.72355347 7.13627609 23.72637329 8.20480316 23.72927856 9.30570984 C23.72725433 10.48808731 23.7252301 11.67046478 23.72314453 12.88867188 C23.72489685 14.12591507 23.72664917 15.36315826 23.72845459 16.63789368 C23.73211286 20.04070691 23.73123962 23.4434597 23.7280755 26.84626961 C23.72555159 30.39991464 23.72788953 33.95355702 23.72946167 37.50720215 C23.73128327 43.47599758 23.7288773 49.44478066 23.72412109 55.41357422 C23.71867849 62.32375818 23.72044115 69.23391265 23.7259475 76.1440959 C23.73047889 82.06680285 23.73112905 87.98950091 23.72850883 93.91220903 C23.7269462 97.45406611 23.72675191 100.99590931 23.73004532 104.5377655 C23.73345828 108.48417313 23.72873386 112.43054746 23.72314453 116.37695312 C23.72516876 117.5593306 23.72719299 118.74170807 23.72927856 119.95991516 C23.72645874 121.02844223 23.72363892 122.0969693 23.72073364 123.19787598 C23.72035662 124.13219704 23.71997959 125.0665181 23.71959114 126.02915192 C23.59375 128.1328125 23.59375 128.1328125 22.59375 129.1328125 C20.89816274 129.23213403 19.19849253 129.26361257 17.5 129.265625 C16.47003906 129.26691406 15.44007813 129.26820313 14.37890625 129.26953125 C12.75275391 129.26373047 12.75275391 129.26373047 11.09375 129.2578125 C10.00964844 129.26167969 8.92554688 129.26554688 7.80859375 129.26953125 C6.77863281 129.26824219 5.74867188 129.26695312 4.6875 129.265625 C3.73552734 129.26449707 2.78355469 129.26336914 1.80273438 129.26220703 C-0.40625 129.1328125 -0.40625 129.1328125 -1.40625 128.1328125 C-1.50129251 125.60740248 -1.53182158 123.10944124 -1.51977539 120.58374023 C-1.51992142 119.79355499 -1.52006744 119.00336975 -1.5202179 118.1892395 C-1.51951857 115.56493428 -1.51172527 112.94069914 -1.50390625 110.31640625 C-1.50204214 108.50179585 -1.5006182 106.68718494 -1.49961853 104.87257385 C-1.49579279 100.0869102 -1.48596204 95.3012767 -1.47491455 90.515625 C-1.46470163 85.63607186 -1.46012117 80.75651386 -1.45507812 75.87695312 C-1.44433982 66.29555964 -1.42726273 56.71418857 -1.40625 47.1328125 C-1.07625 47.1328125 -0.74625 47.1328125 -0.40625 47.1328125 C-0.40625 73.5328125 -0.40625 99.9328125 -0.40625 127.1328125 C6.85375 127.1328125 14.11375 127.1328125 21.59375 127.1328125 C21.59375 85.5528125 21.59375 43.9728125 21.59375 1.1328125 C8.22875 1.6278125 8.22875 1.6278125 -5.40625 2.1328125 C-6.39625 3.4528125 -7.38625 4.7728125 -8.40625 6.1328125 C-7.25990987 -0.25393964 -6.47403158 0.00606832 0 0 Z " fill="#000A14" transform="translate(809.40625,499.8671875)"/>
<path d="M0 0 C0.99261337 0.00222061 1.98522675 0.00444122 3.00791931 0.00672913 C4.12900589 0.00680466 5.25009247 0.00688019 6.40515137 0.00695801 C8.2348069 0.01469994 8.2348069 0.01469994 10.10142517 0.02259827 C11.96377052 0.02472069 11.96377052 0.02472069 13.86373901 0.02688599 C17.16982383 0.03154861 20.47584039 0.04053955 23.78190613 0.05158997 C27.15338042 0.06180625 30.52486175 0.06638407 33.89634705 0.07142639 C40.51550667 0.08248056 47.13463385 0.09923715 53.75376892 0.12025452 C53.75376892 0.45025452 53.75376892 0.78025452 53.75376892 1.12025452 C35.60376892 1.12025452 17.45376892 1.12025452 -1.24623108 1.12025452 C-1.24623108 42.70025452 -1.24623108 84.28025452 -1.24623108 127.12025452 C6.34376892 127.12025452 13.93376892 127.12025452 21.75376892 127.12025452 C21.75376892 112.60025452 21.75376892 98.08025452 21.75376892 83.12025452 C22.08376892 83.12025452 22.41376892 83.12025452 22.75376892 83.12025452 C22.75376892 98.30025452 22.75376892 113.48025452 22.75376892 129.12025452 C18.64939392 129.14087952 14.54501892 129.16150452 10.31626892 129.18275452 C8.37216125 129.19641052 8.37216125 129.19641052 6.38877869 129.21034241 C4.86981995 129.21408875 4.86981995 129.21408875 3.32017517 129.21791077 C1.75698547 129.22576599 1.75698547 129.22576599 0.16221619 129.23377991 C-2.24623108 129.12025452 -2.24623108 129.12025452 -3.24623108 128.12025452 C-3.34449076 126.47766751 -3.37255071 124.83084119 -3.37321472 123.18531799 C-3.37603455 122.11679092 -3.37885437 121.04826385 -3.38175964 119.94735718 C-3.37973541 118.76497971 -3.37771118 117.58260223 -3.37562561 116.36439514 C-3.37737793 115.12715195 -3.37913025 113.88990875 -3.38093567 112.61517334 C-3.38459394 109.2123601 -3.3837207 105.80960732 -3.38055658 102.40679741 C-3.37803267 98.85315237 -3.38037061 95.29951 -3.38194275 91.74586487 C-3.38376435 85.77706944 -3.38135838 79.80828636 -3.37660217 73.8394928 C-3.37115957 66.92930883 -3.37292223 60.01915437 -3.37842858 53.10897112 C-3.38295997 47.18626416 -3.38361013 41.26356611 -3.38098991 35.34085798 C-3.37942728 31.7990009 -3.37923298 28.25715771 -3.3825264 24.71530151 C-3.38593936 20.76889389 -3.38121494 16.82251956 -3.37562561 12.87611389 C-3.37764984 11.69373642 -3.37967407 10.51135895 -3.38175964 9.29315186 C-3.37893982 8.22462479 -3.37612 7.15609772 -3.37321472 6.05519104 C-3.3728377 5.12086998 -3.37246067 4.18654892 -3.37207222 3.2239151 C-3.19633956 0.28622828 -2.9422914 0.15751889 0 0 Z " fill="#212529" transform="translate(581.2462310791016,499.87974548339844)"/>
<path d="M0 0 C0.33 0 0.66 0 1 0 C1 26.4 1 52.8 1 80 C0.34 80 -0.32 80 -1 80 C-1 55.58 -1 31.16 -1 6 C-1.66 5.67 -2.32 5.34 -3 5 C-2.03114628 3.31503702 -1.03013277 1.64821244 0 0 Z " fill="#FBFBFA" transform="translate(807,547)"/>
<path d="M0 0 C0.33 0 0.66 0 1 0 C1.90126483 8.0849653 2.12392124 16.05761091 2.0625 24.1875 C2.041875 28.085625 2.02125 31.98375 2 36 C11.24 36 20.48 36 30 36 C28 38 28 38 25.20263672 38.22705078 C24.04006348 38.21657715 22.87749023 38.20610352 21.6796875 38.1953125 C19.98175049 38.18781982 19.98175049 38.18781982 18.24951172 38.18017578 C16.80592285 38.16196777 15.36233398 38.14375977 13.875 38.125 C9.29625 38.08375 4.7175 38.0425 0 38 C0 25.46 0 12.92 0 0 Z " fill="#DAD8D5" transform="translate(604,524)"/>
<path d="M0 0 C5.62303757 4.67466337 10.79741554 9.67765667 15.9375 14.875 C16.71673828 15.65875 17.49597656 16.4425 18.29882812 17.25 C20.20154085 19.16438581 22.10186171 21.08108034 24 23 C21 23 21 23 18.75390625 20.9609375 C17.82943338 19.9800479 16.91216177 18.99234843 16 18 C13.65941947 15.52842458 11.30020951 13.07540286 8.9375 10.625 C8.32583984 9.97144531 7.71417969 9.31789063 7.08398438 8.64453125 C6.48779297 8.03222656 5.89160156 7.41992188 5.27734375 6.7890625 C4.74359131 6.22912598 4.20983887 5.66918945 3.65991211 5.09228516 C2.04207344 3.78020375 2.04207344 3.78020375 -0.05761719 4.19018555 C-3.06909559 5.44572525 -4.78577979 7.62878928 -7 10 C-8.03377291 11.04173266 -9.07169268 12.07936317 -10.11328125 13.11328125 C-10.63857422 13.63857422 -11.16386719 14.16386719 -11.70507812 14.70507812 C-14.13671875 17.13671875 -16.56835938 19.56835938 -19 22 C-19 19 -19 19 -17.25585938 16.9152832 C-16.45986328 16.13499756 -15.66386719 15.35471191 -14.84375 14.55078125 C-13.55791016 13.27944336 -13.55791016 13.27944336 -12.24609375 11.98242188 C-10.88677734 10.66081055 -10.88677734 10.66081055 -9.5 9.3125 C-8.59378906 8.41982422 -7.68757813 7.52714844 -6.75390625 6.60742188 C-4.50914832 4.39810749 -2.25770002 2.19607467 0 0 Z " fill="#FBFCFB" transform="translate(352,347)"/>
<path d="M0 0 C2.48360441 3.72540662 2.2315867 5.63062973 2.1953125 10.07421875 C2.1924826 10.7580513 2.18965271 11.44188385 2.18673706 12.1464386 C2.17555684 14.32697165 2.15045691 16.50709145 2.125 18.6875 C2.11496738 20.16731177 2.10584202 21.64712999 2.09765625 23.12695312 C2.07562481 26.751436 2.04111002 30.37567766 2 34 C-1.6370991 28.54435135 -1.15660173 22.40918142 -1.125 16.0625 C-1.12886719 15.28970703 -1.13273437 14.51691406 -1.13671875 13.72070312 C-1.12881261 9.04422154 -0.77386973 4.61250925 0 0 Z " fill="#252F35" transform="translate(446,549)"/>
<path d="M0 0 C1.32 0.33 2.64 0.66 4 1 C-7.55 12.55 -19.1 24.1 -31 36 C-31.66 35.67 -32.32 35.34 -33 35 C-32.525625 34.566875 -32.05125 34.13375 -31.5625 33.6875 C-29.76313043 31.97690387 -29.76313043 31.97690387 -29 29 C-27.34106866 27.98721938 -25.67274402 26.9898006 -24 26 C-22.02601972 24.21039007 -20.13480825 22.41562491 -18.26171875 20.52734375 C-17.73608841 20.00362686 -17.21045807 19.47990997 -16.66889954 18.94032288 C-15.56643994 17.83921759 -14.46647513 16.73560934 -13.36889648 15.62963867 C-11.68238098 13.93234828 -9.98537513 12.24607135 -8.28710938 10.56054688 C-7.21550339 9.48762043 -6.14451737 8.41407436 -5.07421875 7.33984375 C-4.56493332 6.83460678 -4.05564789 6.32936981 -3.53092957 5.80882263 C-0.80446502 3.36211003 -0.80446502 3.36211003 0 0 Z " fill="#FBFCFB" transform="translate(213,452)"/>
<path d="M0 0 C2.94751667 2.74423966 5.22773678 5.36219655 7 9 C6.67 9.99 6.34 10.98 6 12 C-3.24 12 -12.48 12 -22 12 C-22.33 11.01 -22.66 10.02 -23 9 C-14.09 9 -5.18 9 4 9 C2.02 5.535 2.02 5.535 0 2 C0 1.34 0 0.68 0 0 Z " fill="#070F18" transform="translate(673,617)"/>
<path d="M0 0 C4.00018417 -0.05421936 7.99962452 -0.09378191 12 -0.125 C13.12535156 -0.14175781 14.25070312 -0.15851562 15.41015625 -0.17578125 C21.65031931 -0.21227343 27.03208475 0.14234011 33 2 C33 2.33 33 2.66 33 3 C22.77 2.67 12.54 2.34 2 2 C2 5.63 2 9.26 2 13 C1.67 13 1.34 13 1 13 C0.67 8.71 0.34 4.42 0 0 Z " fill="#F2F2EF" transform="translate(604,522)"/>
<path d="M0 0 C-0.47409648 4.31730413 -3.03396703 6.33647461 -6.0625 9.25 C-6.98160156 10.14203125 -7.90070313 11.0340625 -8.84765625 11.953125 C-9.55792969 12.62859375 -10.26820313 13.3040625 -11 14 C-11.66 13.67 -12.32 13.34 -13 13 C-11.46781315 9.36938333 -9.2816856 7.0136227 -6.5 4.25 C-5.7059375 3.45078125 -4.911875 2.6515625 -4.09375 1.828125 C-2 0 -2 0 0 0 Z " fill="#112029" transform="translate(471,510)"/>
<path d="M0 0 C0.66 0 1.32 0 2 0 C3.32 3.3 4.64 6.6 6 10 C4.68 9.67 3.36 9.34 2 9 C0.21715186 5.70173093 0 3.8225249 0 0 Z " fill="#F1F2F1" transform="translate(724,548)"/>
<path d="M0 0 C-1.5830577 4.2742558 -4.50568404 6.26531794 -8 9 C-7.53918323 4.85264908 -4.48412936 0 0 0 Z " fill="#D9DAD9" transform="translate(335,334)"/>
<path d="M0 0 C3.16115776 1.36983503 3.9927092 1.9890638 6 5 C4.68 5 3.36 5 2 5 C1.34 3.35 0.68 1.7 0 0 Z " fill="#E0E2E0" transform="translate(463,458)"/>
<path d="M0 0 C3.36720387 1.39332574 4.9859524 2.9789286 7 6 C3.75728494 5.4409112 2.06942576 4.5867822 0 2 C0 1.34 0 0.68 0 0 Z " fill="#D8DBDB" transform="translate(456,451)"/>
</svg>
